<?xml version="1.0" encoding="UTF-8" standalone="no"?>
<svg xmlns="http://www.w3.org/2000/svg" version="1.1" width="660" height="660" style="background: rgb(244, 67, 54);">
  <path d="m 360,243.74662 0,172.50676 250,0 0,-172.50676 -250,0 z m 73.98921,47.57413 c 23.06552,0 41.77898,18.71334 41.77898,41.77896 0,23.06568 -18.71346,41.779 -41.77898,41.779 -23.06551,0 -41.77898,-18.71332 -41.77898,-41.779 0,-23.06563 18.71347,-41.77896 41.77898,-41.77896 z m 101.8868,0 c 23.06556,0 41.77898,18.71334 41.77898,41.77896 0,23.06568 -18.71342,41.779 -41.77898,41.779 -23.06551,0 -41.6442,-18.71332 -41.6442,-41.779 0,-23.06563 18.57869,-41.77896 41.6442,-41.77896 z m 13.74662,35.44476 c -4.9752,0 -9.02963,4.05486 -9.02963,9.02965 0,4.9748 4.05443,8.89485 9.02963,8.89485 4.97476,0 9.0297,-3.92005 9.0297,-8.89485 0,-4.97479 -4.05492,-9.02965 -9.0297,-9.02965 z m -112.938,17.9245 c -4.97522,0 -9.02964,4.05487 -9.02964,9.02967 0,4.97479 4.05442,9.02963 9.02964,9.02963 4.97475,0 8.89487,-4.05484 8.89487,-9.02963 0,-4.9748 -3.92012,-9.02967 -8.89487,-9.02967 z" style="fill:#ffffff;" />
</svg>
