<?xml version="1.0" encoding="UTF-8" standalone="no"?>
<svg xmlns="http://www.w3.org/2000/svg" version="1.1" width="60" height="40">
  <path d="m 0,0 0,40 57.96875,0 0,-40 L 0,0 z m 17.15625,11.03125 c 5.348318,0 9.6875,4.33915 9.6875,9.6875 0,5.34835 -4.339182,9.6875 -9.6875,9.6875 -5.348317,0 -9.6875,-4.33915 -9.6875,-9.6875 0,-5.34835 4.339183,-9.6875 9.6875,-9.6875 z m 23.625,0 c 5.348318,0 9.6875,4.33915 9.6875,9.6875 0,5.34835 -4.339182,9.6875 -9.6875,9.6875 -5.348319,0 -9.65625,-4.33915 -9.65625,-9.6875 0,-5.34835 4.307931,-9.6875 9.65625,-9.6875 z m 3.1875,8.21875 c -1.153627,0 -2.09375,0.940225 -2.09375,2.09375 0,1.153525 0.940122,2.0625 2.09375,2.0625 1.153519,0 2.09375,-0.908975 2.09375,-2.0625 0,-1.153525 -0.940231,-2.09375 -2.09375,-2.09375 z m -26.1875,4.15625 c -1.153628,0 -2.09375,0.940225 -2.09375,2.09375 0,1.153525 0.940122,2.09375 2.09375,2.09375 1.153519,0 2.0625,-0.940225 2.0625,-2.09375 0,-1.153525 -0.908981,-2.09375 -2.0625,-2.09375 z" style="fill:#ffffff;fill-opacity:1;fill-rule:nonzero;stroke:none" />
</svg>